#!OML:ASF F:\VICON\USERDATA\INSTALL\rory3\rory3.ASF
:FULLY-SPECIFIED
:DEGREES
28
root 0.6062012129296501 17.44019992526206 -14.343388658515062 6.59195167469651 0.4565480550224146 -2.1182179227988804
lfemur -16.114902023141475 8.737654823331608 -17.95469971976142
ltibia 23.0854036243107
lfoot -12.307598654487572 3.414785390452832
ltoes -8.12086319287402
rfemur -16.375702859152412 -2.4195628472091584 20.16350314326855
rtibia 24.10210423616898
rfoot -13.714699870800624 -3.0304998613849965
rtoes 2.038347331882103
lowerback -0.5819118140403492 -0.6074361483795649 1.2629939338122393
upperback 2.468131419738679 -0.886585135881204 1.9907211318581277
thorax 2.8725554279906467 -0.43844712868460134 1.3099132153367876
lowerneck -14.666093765456331 -0.26764713048987576 -2.5287725947296638
upperneck 5.871563350430193 0.060065487289119535 0.6502124846582432
head 4.120753373494969 0.006993928964993623 0.611513808430873
lclavicle 1.8617364917620524e-16 -2.354835798374786e-15
lhumerus -22.290002918465074 -3.1529684991265556 89.13759545019255
lradius 22.343598120501458
lwrist 6.182779178702663
lhand -24.441898915062403 -3.1285729863639467
lfingers 7.12502
lthumb 2.0505710863984197 26.841287080900457
rclavicle 1.8617364917620524e-16 -2.354835798374786e-15
rhumerus -24.35110079880005 -16.543102187557604 -79.96199741002312
rradius 27.254595515086418
rwrist 30.386611424804173
rhand -17.455108273791357 -26.31789556319258
rfingers 7.12502
rthumb 8.796151686182217 -56.11459609923641
29
root 0.6086821456551667 17.372600339648198 -14.51758861748461 7.465450905530586 0.3864584112117053 -2.358775552129503
lfemur -19.526700542544365 9.224552576878608 -18.002299448659638
ltibia 26.35190173446499
lfoot -13.090997934339187 3.450555322264881
ltoes -8.747022277079404
rfemur -19.427301510755772 -2.296183544682219 20.472201166479227
rtibia 26.736002354357005
rfoot -14.220399351287751 -3.1894595742931053
rtoes 1.3946578883528389
lowerback 1.070920856782267 -0.5340762946098727 1.38190205349783
upperback 2.8354090139630364 -0.7565164669680695 2.1024793901589147
thorax 2.3189763668897725 -0.3736454645266708 1.3760222695376148
lowerneck -15.034392673379227 -0.2748251061321798 -2.5270826066629013
upperneck 5.620103711481396 0.05711784242272566 0.679065345425806
head 4.101343435204791 0.009448984441962738 0.6197926733850638
lclavicle 1.861736370632109e-16 -2.3548357569618547e-15
lhumerus -22.257302778774452 -3.616787910952607 88.62629622881039
lradius 23.613996170637634
lwrist 7.423757964951119
lhand -24.522298478216165 -2.869843972676222
lfingers 7.12502
lthumb 1.9729315208671823 27.10078578135484
rclavicle 1.861736370632109e-16 -2.3548357569618547e-15
rhumerus -23.907501359167625 -15.769703381321653 -79.87539758099791
rradius 27.96489410915378
rwrist 29.613913184594495
rhand -17.775407359323598 -25.97599816919662
rfingers 7.12502
rthumb 8.487122805501395 -55.78539859239574
30
root 0.6170048978506497 17.27140095784807 -14.727788879457394 8.771819665009563 0.32917364952328754 -2.5348938168391677
lfemur -23.876598670118504 9.54361111855074 -18.244498075848345
ltibia 30.17689995831107
lfoot -13.91559701059205 3.6246151660266244
ltoes -9.325991270039518
rfemur -23.565599645950883 -2.2438438329122863 20.717399603707882
rtibia 30.229800765576858
rfoot -14.956298632935024 -3.3444993187265646
rtoes 0.5503677072119917
lowerback 3.0763392716817797 -0.4599324472421177 1.487630382460658
upperback 3.111677031903459 -0.6066609964934913 2.194397961886487
thorax 1.4767679145252655 -0.2996970101500104 1.427751530439701
lowerneck -15.31939176575044 -0.3220888448372783 -2.5390724926304684
upperneck 5.177873973650362 0.008099212046836612 0.6280316130296157
head 4.010243768371717 -0.014736854616342998 0.6016769876359284
lclavicle 1.861736330108747e-16 -2.3548357368150193e-15
lhumerus -22.543902474320884 -4.326686916600404 87.93759730160998
lradius 24.74659442013022
lwrist 9.073056244554412
lhand -25.620692766907048 -4.857905303837499
lfingers 7.12502
lthumb 0.9120463168606272 25.119894692004245
rclavicle 1.861736330108747e-16 -2.3548357368150193e-15
rhumerus -23.696701664487144 -15.379903997986071 -79.42419831106464
rradius 28.474993238382694
rwrist 28.894013919881075
rhand -17.99880645344115 -25.633900787304935
rfingers 7.12502
rthumb 8.271513429624001 -55.45200113619221
31
root 0.6251236541792526 17.131001817502696 -14.971189063218834 10.367998190234104 0.20535813593947738 -2.568023503036886
lfemur -28.86239646517623 9.529131163755817 -18.672795597908415
ltibia 34.41319809730699
lfoot -14.772996235684449 4.3612340382208705
ltoes -10.30859967719785
rfemur -28.571597338652577 -1.982155204130044 20.801999070057985
rtibia 34.46829861394393
rfoot -15.94749759438185 -3.7401586130689104
rtoes -0.3470729599717348
lowerback 5.547047316327399 -0.36170697504375543 1.3638323449308147
upperback 3.4518447655424263 -0.416136938705522 2.268736805162179
thorax 0.44815165078369534 -0.20945488996410425 1.5860892584951278
lowerneck -15.795990366541128 -0.35448559367665045 -2.4904830122040647
upperneck 4.402814680544714 -0.016739701150593866 0.4357215885390696
head 3.8455242529496516 -0.03147222492015456 0.5318041815728937
lclavicle 1.8617364102744642e-16 -2.354835789420645e-15
lhumerus -22.945602017348705 -4.603036610870934 86.9550987301541
lradius 25.588093275305816
lwrist 10.541094795357047
lhand -26.397688534031275 -5.410172825962752
lfingers 7.12502
lthumb 0.16164339694326246 24.569497075558218
rclavicle 1.8617364102744642e-16 -2.354835789420645e-15
rhumerus -23.689201740494156 -15.079304508676765 -78.70549941424315
rradius 28.939392321888594
rwrist 28.09101543871276
rhand -18.216405856616554 -25.30910326099854
rfingers 7.12502
rthumb 8.061444237459302 -55.13540353610079
32
root 0.6307494932744218 16.947402948211895 -15.244087515439302 12.205796277528478 0.21951410366676782 -2.43344483199131
lfemur -34.446593574355404 9.08489321694775 -19.25889226070915
ltibia 38.97139549049707
lfoot -15.508495781584323 5.567732001613193
ltoes -11.430797824852776
rfemur -34.21659515019046 -1.8242061012701885 20.708899658161148
rtibia 39.23009598546242
rfoot -17.30759607893028 -4.311477582703374
rtoes -1.5151287358818504
lowerback 8.604595120378097 -0.3040918757274926 1.0543272170491635
upperback 3.821852230195187 -0.28432228282498095 2.3009862991209733
thorax -0.8618220827981828 -0.1490251475448068 1.8066860902553368
lowerneck -16.234088993868053 -0.34934062242614017 -2.3877640625469057
upperneck 2.6917962395911657 -0.002810127977977306 0.13850009877577074
head 3.7976344342607753 -0.029772837490072868 0.47754410949261694
lclavicle 1.86173641467916e-16 -2.354835760319668e-15
lhumerus -23.78190094496773 -4.425786919480647 85.6512006386102
lradius 26.171792306518515
lwrist 11.75419309863491
lhand -26.67528722826477 -5.450432668881608
lfingers 7.12502
lthumb -0.1064671723073567 24.52929722942693
rclavicle 1.86173641467916e-16 -2.354835760319668e-15
rhumerus -24.055501176766178 -14.931304686984447 -77.68420097645016
rradius 29.094492138653493
rwrist 27.723816262502083
rhand -18.616204511553335 -24.791407187872817
rfingers 7.12502
rthumb 7.6756454925075825 -54.63210740108409
